<svg width="32" height="32" viewBox="0 0 32 32" fill="none" xmlns="http://www.w3.org/2000/svg">
<rect width="32" height="32" rx="8" fill="black"/>
<path d="M6 17C6.53043 17 7.03914 16.7893 7.41421 16.4142C7.78929 16.0391 8 15.5304 8 15V11C8 10.4696 8.21071 9.96086 8.58579 9.58579C8.96086 9.21071 9.46957 9 10 9C10.5304 9 11.0391 9.21071 11.4142 9.58579C11.7893 9.96086 12 10.4696 12 11V24C12 24.5304 12.2107 25.0391 12.5858 25.4142C12.9609 25.7893 13.4696 26 14 26C14.5304 26 15.0391 25.7893 15.4142 25.4142C15.7893 25.0391 16 24.5304 16 24V8C16 7.46957 16.2107 6.96086 16.5858 6.58579C16.9609 6.21071 17.4696 6 18 6C18.5304 6 19.0391 6.21071 19.4142 6.58579C19.7893 6.96086 20 7.46957 20 8V21C20 21.5304 20.2107 22.0391 20.5858 22.4142C20.9609 22.7893 21.4696 23 22 23C22.5304 23 23.0391 22.7893 23.4142 22.4142C23.7893 22.0391 24 21.5304 24 21V17C24 16.4696 24.2107 15.9609 24.5858 15.5858C24.9609 15.2107 25.4696 15 26 15" stroke="white" stroke-width="2" stroke-linecap="round" stroke-linejoin="round"/>
</svg>
